{
    "accessors" : [
        {
            "bufferView" : 0,
            "componentType" : 5123,
            "count" : 6120,
            "max" : [
                1075
            ],
            "min" : [
                0
            ],
            "type" : "SCALAR"
        },
        {
            "bufferView" : 1,
            "componentType" : 5126,
            "count" : 1076,
            "max" : [
                0.46191999316215515,
                16.824199676513672,
                0.7606300115585327
            ],
            "min" : [
                -0.46191999316215515,
                16.516399383544922,
                0.5064399838447571
            ],
            "type" : "VEC3"
        },
        {
            "bufferView" : 2,
            "componentType" : 5126,
            "count" : 1076,
            "max" : [
                0.9968260526657104,
                0.9971312880516052,
                0.999542236328125
            ],
            "min" : [
                -0.9968260526657104,
                -0.9973449110984802,
                -0.3815424144268036
            ],
            "type" : "VEC3"
        },
        {
            "bufferView" : 3,
            "componentType" : 5126,
            "count" : 1076,
            "max" : [
                0.996452808380127,
                0.8214784860610962,
                0.9992498755455017,
                1.0
            ],
            "min" : [
                -0.8435174822807312,
                -0.6257315278053284,
                -0.999165415763855,
                -1.0
            ],
            "type" : "VEC4"
        },
        {
            "bufferView" : 4,
            "componentType" : 5126,
            "count" : 1076,
            "max" : [
                0.991100013256073,
                0.9890000000596046
            ],
            "min" : [
                0.03620000183582306,
                0.02369999885559082
            ],
            "type" : "VEC2"
        },
        {
            "bufferView" : 5,
            "componentType" : 5123,
            "count" : 80268,
            "max" : [
                14516
            ],
            "min" : [
                0
            ],
            "type" : "SCALAR"
        },
        {
            "bufferView" : 6,
            "componentType" : 5126,
            "count" : 14517,
            "max" : [
                9.372400283813477,
                17.784198760986328,
                1.4292999505996704
            ],
            "min" : [
                -9.372400283813477,
                -0.01990032196044922,
                -1.6754000186920166
            ],
            "type" : "VEC3"
        },
        {
            "bufferView" : 7,
            "componentType" : 5126,
            "count" : 14517,
            "max" : [
                0.999969482421875,
                0.999755859375,
                0.999969482421875
            ],
            "min" : [
                -0.999969482421875,
                -0.999969482421875,
                -0.999969482421875
            ],
            "type" : "VEC3"
        },
        {
            "bufferView" : 8,
            "componentType" : 5126,
            "count" : 14517,
            "max" : [
                1.0,
                0.9999651908874512,
                0.9999266266822815,
                1.0
            ],
            "min" : [
                -0.9999819993972778,
                -0.9999987483024597,
                -0.9999130368232727,
                1.0
            ],
            "type" : "VEC4"
        },
        {
            "bufferView" : 9,
            "componentType" : 5126,
            "count" : 14517,
            "max" : [
                0.9935200214385986,
                0.9903929997235537
            ],
            "min" : [
                0.009208000265061855,
                0.02613997459411621
            ],
            "type" : "VEC2"
        }
    ],
    "asset" : {
        "generator" : "Khronos Blender glTF 2.0 exporter",
        "version" : "2.0"
    },
    "bufferViews" : [
        {
            "buffer" : 0,
            "byteLength" : 12240,
            "byteOffset" : 0,
            "target" : 34963
        },
        {
            "buffer" : 0,
            "byteLength" : 12912,
            "byteOffset" : 12240,
            "target" : 34962
        },
        {
            "buffer" : 0,
            "byteLength" : 12912,
            "byteOffset" : 25152,
            "target" : 34962
        },
        {
            "buffer" : 0,
            "byteLength" : 17216,
            "byteOffset" : 38064,
            "target" : 34962
        },
        {
            "buffer" : 0,
            "byteLength" : 8608,
            "byteOffset" : 55280,
            "target" : 34962
        },
        {
            "buffer" : 0,
            "byteLength" : 160536,
            "byteOffset" : 63888,
            "target" : 34963
        },
        {
            "buffer" : 0,
            "byteLength" : 174204,
            "byteOffset" : 224424,
            "target" : 34962
        },
        {
            "buffer" : 0,
            "byteLength" : 174204,
            "byteOffset" : 398628,
            "target" : 34962
        },
        {
            "buffer" : 0,
            "byteLength" : 232272,
            "byteOffset" : 572832,
            "target" : 34962
        },
        {
            "buffer" : 0,
            "byteLength" : 116136,
            "byteOffset" : 805104,
            "target" : 34962
        }
    ],
    "buffers" : [
        {
            "byteLength" : 921240,
            "uri" : "men.bin"
        }
    ],
    "images" : [
        {
            "name" : "middleage_lightskinned_male_diffuse",
            "uri" : "middleage_lightskinned_male_diffuse.png"
        },
        {
            "name" : "brown_eye",
            "uri" : "brown_eye.png"
        }
    ],
    "materials" : [
        {
            "alphaMode" : "BLEND",
            "name" : "Men:Body:Middleage_cauasian_male",
            "pbrMetallicRoughness" : {
                "baseColorFactor" : [
                    1.0,
                    0.949999988079071,
                    0.8500000238418579,
                    0.0
                ],
                "baseColorTexture" : {
                    "index" : 0
                },
                "metallicFactor" : 0.0
            }
        },
        {
            "alphaMode" : "BLEND",
            "name" : "Men:High-poly:Eye_brown",
            "pbrMetallicRoughness" : {
                "baseColorFactor" : [
                    1.0,
                    1.0,
                    1.0,
                    0.0
                ],
                "baseColorTexture" : {
                    "index" : 1
                },
                "metallicFactor" : 0.0
            }
        }
    ],
    "meshes" : [
        {
            "name" : "Men:High-poly",
            "primitives" : [
                {
                    "attributes" : {
                        "NORMAL" : 2,
                        "POSITION" : 1,
                        "TANGENT" : 3,
                        "TEXCOORD_0" : 4
                    },
                    "indices" : 0,
                    "material" : 1
                }
            ]
        },
        {
            "name" : "Men:Body",
            "primitives" : [
                {
                    "attributes" : {
                        "NORMAL" : 7,
                        "POSITION" : 6,
                        "TANGENT" : 8,
                        "TEXCOORD_0" : 9
                    },
                    "indices" : 5,
                    "material" : 0
                }
            ]
        }
    ],
    "nodes" : [
        {
            "name" : "Camera",
            "rotation" : [
                0.483536034822464,
                0.33687159419059753,
                -0.20870360732078552,
                0.7804827094078064
            ],
            "translation" : [
                7.481131553649902,
                5.34366512298584,
                6.5076398849487305
            ]
        },
        {
            "name" : "Lamp",
            "rotation" : [
                0.16907575726509094,
                0.7558802962303162,
                -0.27217137813568115,
                0.570947527885437
            ],
            "scale" : [
                1.0,
                1.0,
                0.9999999403953552
            ],
            "translation" : [
                4.076245307922363,
                5.903861999511719,
                -1.0054539442062378
            ]
        },
        {
            "children" : [
                3
            ],
            "mesh" : 1,
            "name" : "Men:Body",
            "scale" : [
                0.154732808470726,
                0.1693008542060852,
                0.19088828563690186
            ],
            "translation" : [
                0.005533942952752113,
                0.001138441264629364,
                -0.001218743622303009
            ]
        },
        {
            "mesh" : 0,
            "name" : "Men:High-poly",
            "scale" : [
                0.9999999403953552,
                1.0,
                1.0
            ],
            "translation" : [
                -0.05234904959797859,
                0.0,
                -0.0
            ]
        }
    ],
    "samplers" : [
        {}
    ],
    "scene" : 0,
    "scenes" : [
        {
            "name" : "Scene",
            "nodes" : [
                2,
                1,
                0
            ]
        }
    ],
    "textures" : [
        {
            "sampler" : 0,
            "source" : 0
        },
        {
            "sampler" : 0,
            "source" : 1
        }
    ]
}
